{
  "accessors": [
    {
      "bufferView": 0,
      "componentType": 5126,
      "count": 26,
      "type": "MAT4"
    },
    {
      "bufferView": 1,
      "componentType": 5125,
      "count": 39714,
      "max": [
        12847
      ],
      "min": [
        0
      ],
      "type": "SCALAR"
    },
    {
      "bufferView": 2,
      "componentType": 5126,
      "count": 12848,
      "max": [
        43.00727844238281,
        4.094452857971191,
        6.426201820373535
      ],
      "min": [
        -28.836620330810547,
        -3.0962698459625244,
        -0.48768341541290283
      ],
      "type": "VEC3"
    },
    {
      "bufferView": 3,
      "componentType": 5126,
      "count": 12848,
      "type": "VEC3"
    },
    {
      "bufferView": 4,
      "componentType": 5126,
      "count": 12848,
      "type": "VEC2"
    },
    {
      "bufferView": 5,
      "componentType": 5123,
      "count": 12848,
      "type": "VEC4"
    },
    {
      "bufferView": 6,
      "componentType": 5126,
      "count": 12848,
      "type": "VEC4"
    },
    {
      "bufferView": 7,
      "componentType": 5125,
      "count": 18132,
      "max": [
        5240
      ],
      "min": [
        0
      ],
      "type": "SCALAR"
    },
    {
      "bufferView": 8,
      "componentType": 5126,
      "count": 5241,
      "max": [
        1.8668991327285767,
        2.108198642730713,
        5.201913356781006
      ],
      "min": [
        -30.017719268798828,
        -2.565412759780884,
        -6.7411699295043945
      ],
      "type": "VEC3"
    },
    {
      "bufferView": 9,
      "componentType": 5126,
      "count": 5241,
      "type": "VEC3"
    },
    {
      "bufferView": 10,
      "componentType": 5126,
      "count": 5241,
      "type": "VEC2"
    },
    {
      "bufferView": 11,
      "componentType": 5123,
      "count": 5241,
      "type": "VEC4"
    },
    {
      "bufferView": 12,
      "componentType": 5126,
      "count": 5241,
      "type": "VEC4"
    },
    {
      "bufferView": 13,
      "componentType": 5125,
      "count": 15315,
      "max": [
        4659
      ],
      "min": [
        0
      ],
      "type": "SCALAR"
    },
    {
      "bufferView": 14,
      "componentType": 5126,
      "count": 4660,
      "max": [
        39.624000549316406,
        1.2471272945404053,
        9.136369705200195
      ],
      "min": [
        -16.553180694580078,
        -1.432573914527893,
        5.547342300415039
      ],
      "type": "VEC3"
    },
    {
      "bufferView": 15,
      "componentType": 5126,
      "count": 4660,
      "type": "VEC3"
    },
    {
      "bufferView": 16,
      "componentType": 5126,
      "count": 4660,
      "type": "VEC2"
    },
    {
      "bufferView": 17,
      "componentType": 5123,
      "count": 4660,
      "type": "VEC4"
    },
    {
      "bufferView": 18,
      "componentType": 5126,
      "count": 4660,
      "type": "VEC4"
    },
    {
      "bufferView": 19,
      "componentType": 5125,
      "count": 3468,
      "max": [
        968
      ],
      "min": [
        0
      ],
      "type": "SCALAR"
    },
    {
      "bufferView": 20,
      "componentType": 5126,
      "count": 969,
      "max": [
        -9.817099571228027,
        1.7500568628311157,
        -0.6096000075340271
      ],
      "min": [
        -21.013418197631836,
        -1.402082085609436,
        -7.0561203956604
      ],
      "type": "VEC3"
    },
    {
      "bufferView": 21,
      "componentType": 5126,
      "count": 969,
      "type": "VEC3"
    },
    {
      "bufferView": 22,
      "componentType": 5126,
      "count": 969,
      "type": "VEC2"
    },
    {
      "bufferView": 23,
      "componentType": 5123,
      "count": 969,
      "type": "VEC4"
    },
    {
      "bufferView": 24,
      "componentType": 5126,
      "count": 969,
      "type": "VEC4"
    }
  ],
  "asset": {
    "generator": "Greyhound",
    "version": "2.0"
  },
  "bufferViews": [
    {
      "buffer": 0,
      "byteLength": 1664
    },
    {
      "buffer": 0,
      "byteLength": 158856,
      "byteOffset": 1664,
      "target": 34963
    },
    {
      "buffer": 0,
      "byteLength": 154176,
      "byteOffset": 160520,
      "target": 34962
    },
    {
      "buffer": 0,
      "byteLength": 154176,
      "byteOffset": 314696,
      "target": 34962
    },
    {
      "buffer": 0,
      "byteLength": 102784,
      "byteOffset": 468872,
      "target": 34962
    },
    {
      "buffer": 0,
      "byteLength": 102784,
      "byteOffset": 571656,
      "target": 34962
    },
    {
      "buffer": 0,
      "byteLength": 205568,
      "byteOffset": 674440,
      "target": 34962
    },
    {
      "buffer": 0,
      "byteLength": 72528,
      "byteOffset": 880008,
      "target": 34963
    },
    {
      "buffer": 0,
      "byteLength": 62892,
      "byteOffset": 952536,
      "target": 34962
    },
    {
      "buffer": 0,
      "byteLength": 62892,
      "byteOffset": 1015428,
      "target": 34962
    },
    {
      "buffer": 0,
      "byteLength": 41928,
      "byteOffset": 1078320,
      "target": 34962
    },
    {
      "buffer": 0,
      "byteLength": 41928,
      "byteOffset": 1120248,
      "target": 34962
    },
    {
      "buffer": 0,
      "byteLength": 83856,
      "byteOffset": 1162176,
      "target": 34962
    },
    {
      "buffer": 0,
      "byteLength": 61260,
      "byteOffset": 1246032,
      "target": 34963
    },
    {
      "buffer": 0,
      "byteLength": 55920,
      "byteOffset": 1307292,
      "target": 34962
    },
    {
      "buffer": 0,
      "byteLength": 55920,
      "byteOffset": 1363212,
      "target": 34962
    },
    {
      "buffer": 0,
      "byteLength": 37280,
      "byteOffset": 1419132,
      "target": 34962
    },
    {
      "buffer": 0,
      "byteLength": 37280,
      "byteOffset": 1456412,
      "target": 34962
    },
    {
      "buffer": 0,
      "byteLength": 74560,
      "byteOffset": 1493692,
      "target": 34962
    },
    {
      "buffer": 0,
      "byteLength": 13872,
      "byteOffset": 1568252,
      "target": 34963
    },
    {
      "buffer": 0,
      "byteLength": 11628,
      "byteOffset": 1582124,
      "target": 34962
    },
    {
      "buffer": 0,
      "byteLength": 11628,
      "byteOffset": 1593752,
      "target": 34962
    },
    {
      "buffer": 0,
      "byteLength": 7752,
      "byteOffset": 1605380,
      "target": 34962
    },
    {
      "buffer": 0,
      "byteLength": 7752,
      "byteOffset": 1613132,
      "target": 34962
    },
    {
      "buffer": 0,
      "byteLength": 15504,
      "byteOffset": 1620884,
      "target": 34962
    }
  ],
  "buffers": [
    {
      "byteLength": 1636388,
      "uri": "att_vm_p21_sn_mromeo_rec_v0_LOD0.bin"
    }
  ],
  "images": [
    {
      "uri": "..\\\\_images\\\\wpn_p21_sn_mromeo_upper_v0\\\\ximage_a6abdfbc5635da5.dds"
    },
    {
      "uri": "..\\\\_images\\\\wpn_p21_sn_mromeo_lower_v0\\\\ximage_7de2eeecb4f5deb6.dds"
    },
    {
      "uri": "..\\\\_images\\\\wpn_p21_sn_mromeo_ironsights_v0\\\\ximage_68a2b35668841f8a.dds"
    }
  ],
  "materials": [
    {
      "name": "wpn_p21_sn_mromeo_upper_v0",
      "pbrMetallicRoughness": {
        "baseColorTexture": {
          "index": 0
        },
        "metallicFactor": 0.0,
        "roughnessFactor": 0.75
      }
    },
    {
      "name": "wpn_p21_sn_mromeo_lower_v0",
      "pbrMetallicRoughness": {
        "baseColorTexture": {
          "index": 1
        },
        "metallicFactor": 0.0,
        "roughnessFactor": 0.75
      }
    },
    {
      "name": "wpn_p21_sn_mromeo_ironsights_v0",
      "pbrMetallicRoughness": {
        "baseColorTexture": {
          "index": 2
        },
        "metallicFactor": 0.0,
        "roughnessFactor": 0.75
      }
    }
  ],
  "meshes": [
    {
      "primitives": [
        {
          "attributes": {
            "JOINTS_0": 5,
            "NORMAL": 3,
            "POSITION": 2,
            "TEXCOORD_0": 4,
            "WEIGHTS_0": 6
          },
          "indices": 1,
          "material": 0,
          "mode": 4
        }
      ]
    },
    {
      "primitives": [
        {
          "attributes": {
            "JOINTS_0": 11,
            "NORMAL": 9,
            "POSITION": 8,
            "TEXCOORD_0": 10,
            "WEIGHTS_0": 12
          },
          "indices": 7,
          "material": 1,
          "mode": 4
        }
      ]
    },
    {
      "primitives": [
        {
          "attributes": {
            "JOINTS_0": 17,
            "NORMAL": 15,
            "POSITION": 14,
            "TEXCOORD_0": 16,
            "WEIGHTS_0": 18
          },
          "indices": 13,
          "material": 2,
          "mode": 4
        }
      ]
    },
    {
      "primitives": [
        {
          "attributes": {
            "JOINTS_0": 23,
            "NORMAL": 21,
            "POSITION": 20,
            "TEXCOORD_0": 22,
            "WEIGHTS_0": 24
          },
          "indices": 19,
          "material": 1,
          "mode": 4
        }
      ]
    }
  ],
  "nodes": [
    {
      "children": [
        1
      ],
      "name": "j_gun",
      "rotation": [
        0.0,
        0.0,
        0.0,
        1.0
      ],
      "translation": [
        0.0,
        0.0,
        0.0
      ]
    },
    {
      "children": [
        2,
        3,
        4,
        5,
        6,
        7,
        8,
        9,
        10,
        11,
        12,
        13,
        14,
        15,
        16,
        17,
        18,
        19,
        20,
        21,
        23,
        24,
        25
      ],
      "name": "tag_sling",
      "rotation": [
        0.0,
        0.0,
        0.0,
        0.999969482421875
      ],
      "translation": [
        -27.652978897094727,
        0.0,
        1.0998200178146362
      ]
    },
    {
      "children": [
        22
      ],
      "name": "j_bolt",
      "rotation": [
        0.0,
        0.0,
        0.0,
        0.999969482421875
      ],
      "translation": [
        20.784820556640625,
        0.09143999218940735,
        1.757680058479309
      ]
    },
    {
      "name": "j_trigger",
      "rotation": [
        0.0,
        0.0,
        0.0,
        0.999969482421875
      ],
      "translation": [
        11.148059844970703,
        0.007619999814778566,
        -3.606799840927124
      ]
    },
    {
      "name": "tag_acog_2",
      "rotation": [
        0.0,
        0.0,
        0.0,
        0.999969482421875
      ],
      "translation": [
        12.872720718383789,
        0.0,
        5.308599472045898
      ]
    },
    {
      "name": "tag_align_gun",
      "rotation": [
        0.0,
        0.0,
        0.0,
        0.999969482421875
      ],
      "translation": [
        13.106399536132813,
        0.0,
        7.553959846496582
      ]
    },
    {
      "name": "tag_barrel_attach",
      "rotation": [
        0.0,
        0.0,
        0.0,
        0.999969482421875
      ],
      "translation": [
        28.013660430908203,
        0.0,
        1.8084800243377686
      ]
    },
    {
      "name": "tag_bipod_attach",
      "rotation": [
        0.0,
        0.0,
        0.0,
        0.999969482421875
      ],
      "translation": [
        62.9996223449707,
        0.0,
        -1.3258800506591797
      ]
    },
    {
      "name": "tag_brass",
      "rotation": [
        0.0,
        0.0,
        -0.70709228515625,
        0.70709228515625
      ],
      "translation": [
        22.258020401000977,
        -1.6484599113464355,
        2.8117799758911133
      ]
    },
    {
      "name": "tag_cosdisplay",
      "rotation": [
        0.0,
        0.0,
        0.0,
        0.999969482421875
      ],
      "translation": [
        17.566640853881836,
        1.6154398918151855,
        1.8084800243377686
      ]
    },
    {
      "name": "tag_cosmetic",
      "rotation": [
        0.0,
        0.043121337890625,
        0.0,
        0.999053955078125
      ],
      "translation": [
        21.229318618774414,
        2.0116798877716064,
        2.4561800956726074
      ]
    },
    {
      "name": "tag_hybrid",
      "rotation": [
        0.0,
        0.0,
        0.0,
        0.999969482421875
      ],
      "translation": [
        15.857219696044922,
        0.0,
        5.283199787139893
      ]
    },
    {
      "name": "tag_ik_loc_le",
      "rotation": [
        -0.87677001953125,
        0.2293701171875,
        -0.095306396484375,
        0.411712646484375
      ],
      "translation": [
        37.86631774902344,
        4.831079959869385,
        -1.4223999977111816
      ]
    },
    {
      "name": "tag_ik_loc_ri",
      "rotation": [
        -0.84442138671875,
        -0.0032958984375,
        -0.028594970703125,
        0.53485107421875
      ],
      "translation": [
        -0.6654801964759827,
        -3.218179941177368,
        -9.415780067443848
      ]
    },
    {
      "name": "tag_laser_attach",
      "rotation": [
        0.70709228515625,
        0.0,
        0.0,
        0.70709228515625
      ],
      "translation": [
        59.88050079345703,
        -3.108959913253784,
        1.8084800243377686
      ]
    },
    {
      "name": "tag_mag_attach",
      "rotation": [
        0.0,
        0.0,
        0.0,
        0.999969482421875
      ],
      "translation": [
        27.90443992614746,
        0.0,
        -3.182620048522949
      ]
    },
    {
      "name": "tag_pistolgrip_attach",
      "rotation": [
        0.0,
        0.0,
        0.0,
        0.999969482421875
      ],
      "translation": [
        6.367779731750488,
        0.0,
        -4.417059898376465
      ]
    },
    {
      "name": "tag_reflex",
      "rotation": [
        0.0,
        0.0,
        0.0,
        0.999969482421875
      ],
      "translation": [
        15.857219696044922,
        0.0,
        5.283199787139893
      ]
    },
    {
      "name": "tag_scope",
      "rotation": [
        0.0,
        0.0,
        0.0,
        0.999969482421875
      ],
      "translation": [
        14.67866039276123,
        0.0,
        5.308599472045898
      ]
    },
    {
      "name": "tag_sight_on",
      "rotation": [
        0.0,
        0.0,
        0.0,
        0.999969482421875
      ],
      "translation": [
        38.651180267333984,
        0.0,
        7.820659637451172
      ]
    },
    {
      "name": "tag_stock_attach",
      "rotation": [
        0.0,
        0.0,
        0.0,
        0.999969482421875
      ],
      "translation": [
        -1.8008590936660767,
        -2.0066001415252686,
        0.218439981341362
      ]
    },
    {
      "name": "tag_thermal",
      "rotation": [
        0.0,
        0.0,
        0.0,
        0.999969482421875
      ],
      "translation": [
        12.872720718383789,
        0.0,
        5.308599472045898
      ]
    },
    {
      "name": "tag_rail_attach",
      "rotation": [
        0.0,
        0.0,
        0.0,
        0.999969482421875
      ],
      "translation": [
        -4.6532793045043945,
        0.0,
        0.0
      ]
    },
    {
      "name": "j_fire_sel",
      "rotation": [
        0.0,
        0.0,
        0.0,
        0.999969482421875
      ],
      "translation": [
        8.514080047607422,
        0.2209799885749817,
        -2.2656798362731934
      ]
    },
    {
      "name": "j_mag_rel",
      "rotation": [
        0.0,
        0.0,
        0.0,
        0.999969482421875
      ],
      "translation": [
        17.104360580444336,
        -0.005080000031739473,
        -6.012180328369141
      ]
    },
    {
      "name": "tag_menu",
      "rotation": [
        0.0,
        0.0,
        0.0,
        0.999969482421875
      ],
      "translation": [
        27.652978897094727,
        0.0,
        0.7543800473213196
      ]
    },
    {
      "mesh": 0,
      "skin": 0
    },
    {
      "mesh": 1,
      "skin": 0
    },
    {
      "mesh": 2,
      "skin": 0
    },
    {
      "mesh": 3,
      "skin": 0
    }
  ],
  "scene": 0,
  "scenes": [
    {
      "nodes": [
        0
      ]
    }
  ],
  "skins": [
    {
      "inverseBindMatrices": 0,
      "joints": [
        0,
        1,
        2,
        3,
        4,
        5,
        6,
        7,
        8,
        9,
        10,
        11,
        12,
        13,
        14,
        15,
        16,
        17,
        18,
        19,
        20,
        21,
        22,
        23,
        24,
        25
      ]
    }
  ],
  "textures": [
    {
      "source": 0
    },
    {
      "source": 1
    },
    {
      "source": 2
    }
  ]
}
